<svg width="19" height="19" viewBox="0 0 19 19" fill="none" xmlns="http://www.w3.org/2000/svg">
<path d="M5.9375 11.875H7.125V14.25H5.9375V11.875ZM8.90625 10.6875H10.0938V14.25H8.90625V10.6875ZM2.96875 8.3125H4.15625V14.25H2.96875V8.3125Z" fill="#C9CACB"/>
<path d="M11.875 2.96875H10.0938V2.375C10.0938 2.06006 9.96864 1.75801 9.74594 1.53531C9.52324 1.31261 9.22119 1.1875 8.90625 1.1875H4.15625C3.84131 1.1875 3.53926 1.31261 3.31656 1.53531C3.09386 1.75801 2.96875 2.06006 2.96875 2.375V2.96875H1.1875C0.872555 2.96875 0.57051 3.09386 0.347811 3.31656C0.125111 3.53926 0 3.84131 0 4.15625V16.625C0 16.9399 0.125111 17.242 0.347811 17.4647C0.57051 17.6874 0.872555 17.8125 1.1875 17.8125H11.875C12.1899 17.8125 12.492 17.6874 12.7147 17.4647C12.9374 17.242 13.0625 16.9399 13.0625 16.625V4.15625C13.0625 3.84131 12.9374 3.53926 12.7147 3.31656C12.492 3.09386 12.1899 2.96875 11.875 2.96875ZM4.15625 2.375H8.90625V4.75H4.15625V2.375ZM11.875 16.625H1.1875V4.15625H2.96875V5.9375H10.0938V4.15625H11.875V16.625Z" fill="#C9CACB"/>
</svg>
