<svg width="18" height="16" viewBox="0 0 18 16" fill="none" xmlns="http://www.w3.org/2000/svg">
<path d="M14 10.5H12.3333V12.1667H14M14 7.16667H12.3333V8.83333H14M15.6666 13.8333H8.99996V12.1667H10.6666V10.5H8.99996V8.83333H10.6666V7.16667H8.99996V5.5H15.6666M7.33329 3.83333H5.66663V2.16667H7.33329M7.33329 7.16667H5.66663V5.5H7.33329M7.33329 10.5H5.66663V8.83333H7.33329M7.33329 13.8333H5.66663V12.1667H7.33329M3.99996 3.83333H2.33329V2.16667H3.99996M3.99996 7.16667H2.33329V5.5H3.99996M3.99996 10.5H2.33329V8.83333H3.99996M3.99996 13.8333H2.33329V12.1667H3.99996M8.99996 3.83333V0.5H0.666626V15.5H17.3333V3.83333H8.99996Z" fill="#C9CACB"/>
</svg>
