<svg width="20" height="20" viewBox="0 0 20 20" fill="none" xmlns="http://www.w3.org/2000/svg">
<path fill-rule="evenodd" clip-rule="evenodd" d="M4.41086 4.41083C4.56713 4.2546 4.77906 4.16684 5.00003 4.16684C5.221 4.16684 5.43292 4.2546 5.58919 4.41083L16.1959 15.0167C16.3477 15.1738 16.4317 15.3843 16.4298 15.6028C16.4279 15.8213 16.3402 16.0303 16.1857 16.1848C16.0312 16.3393 15.8222 16.427 15.6037 16.4289C15.3852 16.4308 15.1747 16.3468 15.0175 16.195L4.41086 5.58916C4.25463 5.43289 4.16687 5.22097 4.16687 4.99999C4.16687 4.77902 4.25463 4.5671 4.41086 4.41083Z" fill="#6D6D6D"/>
<path fill-rule="evenodd" clip-rule="evenodd" d="M16.4222 4.41083C16.5784 4.5671 16.6662 4.77902 16.6662 4.99999C16.6662 5.22097 16.5784 5.43289 16.4222 5.58916L5.81555 16.1958C5.73868 16.2754 5.64673 16.3389 5.54506 16.3826C5.44339 16.4263 5.33404 16.4492 5.22339 16.4502C5.11274 16.4512 5.003 16.4301 4.90059 16.3882C4.79818 16.3463 4.70513 16.2844 4.62689 16.2062C4.54865 16.1279 4.48677 16.0349 4.44487 15.9325C4.40297 15.83 4.38188 15.7203 4.38284 15.6097C4.38381 15.499 4.40679 15.3897 4.45047 15.288C4.49414 15.1863 4.55763 15.0944 4.63722 15.0175L15.2439 4.41083C15.4002 4.2546 15.6121 4.16684 15.8331 4.16684C16.054 4.16684 16.2659 4.2546 16.4222 4.41083Z" fill="#6D6D6D"/>
</svg>
