<svg width="20" height="20" viewBox="0 0 20 20" fill="none" xmlns="http://www.w3.org/2000/svg">
<path d="M5.89997 0.600006H16.1C16.9752 0.600006 17.8146 0.947684 18.4334 1.56655C19.0523 2.18542 19.4 3.02479 19.4 3.90001V14.1C19.4 14.9752 19.0523 15.8146 18.4334 16.4335C17.8146 17.0523 16.9752 17.4 16.1 17.4H11.1452L9.94517 16.2H16.1C16.6569 16.2 17.1911 15.9788 17.5849 15.5849C17.9787 15.1911 18.2 14.657 18.2 14.1V3.90001C18.2 3.34305 17.9787 2.80891 17.5849 2.41508C17.1911 2.02126 16.6569 1.80001 16.1 1.80001H5.89997C5.34302 1.80001 4.80887 2.02126 4.41505 2.41508C4.02122 2.80891 3.79997 3.34305 3.79997 3.90001V7.83241C3.39076 7.87835 2.98814 7.97095 2.59997 8.10841V3.90001C2.59997 3.02479 2.94765 2.18542 3.56652 1.56655C4.18539 0.947684 5.02476 0.600006 5.89997 0.600006ZM10.4 13.8C10.2408 13.8 10.0882 13.7368 9.97571 13.6243C9.86318 13.5117 9.79997 13.3591 9.79997 13.2C9.79997 13.0409 9.86318 12.8883 9.97571 12.7757C10.0882 12.6632 10.2408 12.6 10.4 12.6H15.2C15.3591 12.6 15.5117 12.6632 15.6242 12.7757C15.7368 12.8883 15.8 13.0409 15.8 13.2C15.8 13.3591 15.7368 13.5117 15.6242 13.6243C15.5117 13.7368 15.3591 13.8 15.2 13.8H10.4ZM7.99997 5.70001C7.99997 5.9387 7.90515 6.16762 7.73637 6.3364C7.56758 6.50518 7.33867 6.60001 7.09997 6.60001C6.86128 6.60001 6.63236 6.50518 6.46357 6.3364C6.29479 6.16762 6.19997 5.9387 6.19997 5.70001C6.19997 5.46131 6.29479 5.23239 6.46357 5.06361C6.63236 4.89483 6.86128 4.80001 7.09997 4.80001C7.33867 4.80001 7.56758 4.89483 7.73637 5.06361C7.90515 5.23239 7.99997 5.46131 7.99997 5.70001ZM10.4 5.40001C10.2408 5.40001 10.0882 5.46322 9.97571 5.57574C9.86318 5.68826 9.79997 5.84088 9.79997 6.00001C9.79997 6.15914 9.86318 6.31175 9.97571 6.42427C10.0882 6.53679 10.2408 6.60001 10.4 6.60001H15.2C15.3591 6.60001 15.5117 6.53679 15.6242 6.42427C15.7368 6.31175 15.8 6.15914 15.8 6.00001C15.8 5.84088 15.7368 5.68826 15.6242 5.57574C15.5117 5.46322 15.3591 5.40001 15.2 5.40001H10.4ZM10.4 9.00001C10.2408 9.00001 10.0882 9.06322 9.97571 9.17574C9.86318 9.28826 9.79997 9.44088 9.79997 9.60001C9.79997 9.75914 9.86318 9.91175 9.97571 10.0243C10.0882 10.1368 10.2408 10.2 10.4 10.2H15.2C15.3591 10.2 15.5117 10.1368 15.6242 10.0243C15.7368 9.91175 15.8 9.75914 15.8 9.60001C15.8 9.44088 15.7368 9.28826 15.6242 9.17574C15.5117 9.06322 15.3591 9.00001 15.2 9.00001H10.4ZM4.39997 17.4C5.34317 17.4 6.21437 17.088 6.91517 16.5636L9.97517 19.6236C10.0309 19.6794 10.097 19.7237 10.1698 19.7539C10.2427 19.7841 10.3207 19.7997 10.3995 19.7997C10.4784 19.7998 10.5565 19.7843 10.6293 19.7542C10.7022 19.7241 10.7684 19.6799 10.8242 19.6242C10.88 19.5685 10.9242 19.5023 10.9544 19.4295C10.9847 19.3567 11.0002 19.2787 11.0003 19.1998C11.0004 19.121 10.9849 19.0429 10.9548 18.9701C10.9247 18.8972 10.8805 18.831 10.8248 18.7752L7.76477 15.7152C8.33118 14.9577 8.62534 14.0313 8.59962 13.0858C8.5739 12.1403 8.2298 11.2312 7.62304 10.5056C7.01628 9.7801 6.18239 9.28058 5.25638 9.088C4.33037 8.89541 3.36646 9.02102 2.52074 9.44448C1.67501 9.86795 0.99697 10.5645 0.596413 11.4213C0.195856 12.2781 0.0962304 13.2451 0.313667 14.1655C0.531103 15.086 1.05287 15.9062 1.79449 16.4932C2.5361 17.0802 3.45415 17.3997 4.39997 17.4ZM4.39997 16.2C3.60432 16.2 2.84126 15.8839 2.27865 15.3213C1.71604 14.7587 1.39997 13.9957 1.39997 13.2C1.39997 12.4044 1.71604 11.6413 2.27865 11.0787C2.84126 10.5161 3.60432 10.2 4.39997 10.2C5.19562 10.2 5.95868 10.5161 6.52129 11.0787C7.0839 11.6413 7.39997 12.4044 7.39997 13.2C7.39997 13.9957 7.0839 14.7587 6.52129 15.3213C5.95868 15.8839 5.19562 16.2 4.39997 16.2Z" fill="white"/>
</svg>
