<svg width="20" height="21" viewBox="0 0 20 21" fill="none" xmlns="http://www.w3.org/2000/svg">
<path d="M18.1868 8.00071L18.2032 8.04749L18.2643 8.24964L18.3154 8.43107L18.3371 8.51392L18.3729 8.66392C18.8361 10.7541 18.498 12.9421 17.4254 14.795C16.3551 16.6536 14.6252 18.0419 12.5789 18.6843L12.4346 18.7271L12.2575 18.7729L12.0014 18.8336C11.911 18.8542 11.8172 18.8559 11.7261 18.8386C11.6349 18.8214 11.5483 18.7856 11.4717 18.7333C11.395 18.6811 11.3299 18.6137 11.2804 18.5352C11.231 18.4567 11.1983 18.3688 11.1843 18.2771C11.1556 18.0889 11.1986 17.8968 11.3048 17.7388C11.411 17.5807 11.5727 17.4684 11.7579 17.4239L11.9639 17.3721C12.0925 17.3383 12.2031 17.3058 12.2957 17.2746C13.939 16.7198 15.3232 15.584 16.1882 14.0807C17.0583 12.5785 17.3494 10.8101 17.0068 9.10821L16.9821 8.99642L16.9493 8.86606L16.9082 8.71678L16.8589 8.54892C16.8037 8.36581 16.8194 8.16865 16.9027 7.99652C16.9861 7.8244 17.131 7.68988 17.3089 7.61964C17.3916 7.58698 17.4799 7.57093 17.5687 7.57241C17.6576 7.57389 17.7453 7.59287 17.8268 7.62826C17.9083 7.66365 17.9821 7.71476 18.0439 7.77866C18.1056 7.84257 18.1542 7.91802 18.1868 8.00071ZM2.6375 7.61428C2.65297 7.61904 2.66821 7.62428 2.68321 7.62999C2.8607 7.69917 3.00572 7.8325 3.08953 8.00356C3.17334 8.17462 3.18982 8.37092 3.13571 8.55356C3.07143 8.76999 3.025 8.95011 2.99643 9.09392C2.65526 10.7944 2.94673 12.561 3.81607 14.0618C4.68187 15.5665 6.06772 16.7029 7.71285 17.2571L7.82214 17.2918L7.88428 17.3096L8.02357 17.3475L8.27143 17.4086C8.45763 17.4523 8.62058 17.5645 8.72795 17.7228C8.83532 17.8811 8.87926 18.074 8.85107 18.2632C8.82461 18.4406 8.72878 18.6002 8.58466 18.707C8.44053 18.8137 8.2599 18.8589 8.0825 18.8325L8.03321 18.8236L7.8275 18.7754L7.64535 18.7289L7.48607 18.6843L7.41464 18.6629C5.37259 18.0187 3.64673 16.6315 2.57857 14.7757C1.50396 12.9196 1.16652 10.7273 1.63321 8.63392L1.66071 8.51964L1.69643 8.38571L1.76571 8.14821L1.79285 8.05892C1.81909 7.97424 1.86174 7.89555 1.91839 7.82735C1.97504 7.75916 2.04456 7.70279 2.123 7.66146C2.20143 7.62014 2.28724 7.59467 2.37552 7.58652C2.4638 7.57836 2.55282 7.58803 2.6375 7.61428ZM10.0182 4.78571C13.1743 4.78571 15.7325 7.34392 15.7325 10.5C15.7325 13.6561 13.1743 16.2143 10.0182 16.2143C6.86214 16.2143 4.30393 13.6561 4.30393 10.5C4.30393 7.34392 6.8625 4.78571 10.0182 4.78571ZM10.0182 6.21428C7.65143 6.21428 5.7325 8.13321 5.7325 10.5C5.7325 12.8668 7.65143 14.7857 10.0182 14.7857C12.3854 14.7857 14.3039 12.8668 14.3039 10.5C14.3039 8.13321 12.3854 6.21428 10.0182 6.21428ZM10.0182 1.92856C12.163 1.92593 14.2304 2.72984 15.81 4.18071L15.8954 4.26178L15.9936 4.35964L16.1043 4.47464L16.2279 4.60642C16.2909 4.67445 16.3392 4.75474 16.3699 4.84228C16.4005 4.92982 16.4128 5.02273 16.4059 5.11522C16.399 5.20771 16.3732 5.2978 16.3299 5.37985C16.2867 5.4619 16.227 5.53417 16.1546 5.59214C16.006 5.71124 15.818 5.77015 15.628 5.75718C15.4379 5.74422 15.2597 5.66033 15.1286 5.52214C15.051 5.43999 14.9789 5.36654 14.9125 5.30178L14.7875 5.18249L14.7304 5.13142C13.4283 3.98564 11.7526 3.3547 10.0182 3.35714C8.28218 3.35462 6.60508 3.98664 5.3025 5.13428L5.26178 5.17071L5.17143 5.25642L5.06893 5.35821L4.89214 5.54214C4.62071 5.83106 4.17285 5.86356 3.8625 5.61714C3.7929 5.56188 3.73486 5.49345 3.69172 5.41576C3.64857 5.33807 3.62116 5.25264 3.61104 5.16435C3.60092 5.07606 3.60831 4.98664 3.63276 4.9012C3.65722 4.81577 3.69827 4.73599 3.75357 4.66642L3.78571 4.62857L3.93035 4.47464L4.06178 4.33964C4.12416 4.27702 4.18178 4.22166 4.23464 4.17356C5.81315 2.7273 7.87697 1.92614 10.0179 1.92856" fill="#6D6D6D"/>
</svg>
