<svg width="15" height="20" viewBox="0 0 15 20" fill="none" xmlns="http://www.w3.org/2000/svg">
<path d="M5.93592 15.0425L3.00279 12.1093L4.123 10.9891L5.93908 12.8052L10.1294 8.61492L11.2496 9.73513L5.93592 15.0425ZM14.25 5.54167V15.8333C14.25 16.2533 14.0832 16.656 13.7863 16.9529C13.4893 17.2499 13.0866 17.4167 12.6667 17.4167H1.58333C1.16341 17.4167 0.76068 17.2499 0.463748 16.9529C0.166815 16.656 0 16.2533 0 15.8333V5.54167C0 5.12174 0.166815 4.71901 0.463748 4.42208C0.76068 4.12515 1.16341 3.95833 1.58333 3.95833H2.375V2.375H3.95833V3.95833H10.2917V2.375H11.875V3.95833H12.6667C13.0866 3.95833 13.4893 4.12515 13.7863 4.42208C14.0832 4.71901 14.25 5.12174 14.25 5.54167ZM12.6667 7.125H1.58333V15.8333H12.6667V7.125Z" fill="white"/>
</svg>
