<svg width="21" height="20" viewBox="0 0 21 20" fill="none" xmlns="http://www.w3.org/2000/svg">
<path d="M2.5 3.5C2.5 3.10218 2.65804 2.72064 2.93934 2.43934C3.22064 2.15804 3.60218 2 4 2H5C5.39782 2 5.77936 2.15804 6.06066 2.43934C6.34196 2.72064 6.5 3.10218 6.5 3.5V4.5C6.5 4.89782 6.34196 5.27936 6.06066 5.56066C5.77936 5.84196 5.39782 6 5 6H4C3.60218 6 3.22064 5.84196 2.93934 5.56066C2.65804 5.27936 2.5 4.89782 2.5 4.5V3.5ZM4 3C3.86739 3 3.74021 3.05268 3.64645 3.14645C3.55268 3.24021 3.5 3.36739 3.5 3.5V4.5C3.5 4.63261 3.55268 4.75979 3.64645 4.85355C3.74021 4.94732 3.86739 5 4 5H5C5.13261 5 5.25979 4.94732 5.35355 4.85355C5.44732 4.75979 5.5 4.63261 5.5 4.5V3.5C5.5 3.36739 5.44732 3.24021 5.35355 3.14645C5.25979 3.05268 5.13261 3 5 3H4ZM2.5 9.5C2.5 9.10218 2.65804 8.72064 2.93934 8.43934C3.22064 8.15804 3.60218 8 4 8H5C5.39782 8 5.77936 8.15804 6.06066 8.43934C6.34196 8.72064 6.5 9.10218 6.5 9.5V10.5C6.5 10.8978 6.34196 11.2794 6.06066 11.5607C5.77936 11.842 5.39782 12 5 12H4C3.60218 12 3.22064 11.842 2.93934 11.5607C2.65804 11.2794 2.5 10.8978 2.5 10.5V9.5ZM4 9C3.86739 9 3.74021 9.05268 3.64645 9.14645C3.55268 9.24021 3.5 9.36739 3.5 9.5V10.5C3.5 10.6326 3.55268 10.7598 3.64645 10.8536C3.74021 10.9473 3.86739 11 4 11H5C5.13261 11 5.25979 10.9473 5.35355 10.8536C5.44732 10.7598 5.5 10.6326 5.5 10.5V9.5C5.5 9.36739 5.44732 9.24021 5.35355 9.14645C5.25979 9.05268 5.13261 9 5 9H4ZM2.5 15.5C2.5 15.1022 2.65804 14.7206 2.93934 14.4393C3.22064 14.158 3.60218 14 4 14H5C5.39782 14 5.77936 14.158 6.06066 14.4393C6.34196 14.7206 6.5 15.1022 6.5 15.5V16.5C6.5 16.8978 6.34196 17.2794 6.06066 17.5607C5.77936 17.842 5.39782 18 5 18H4C3.60218 18 3.22064 17.842 2.93934 17.5607C2.65804 17.2794 2.5 16.8978 2.5 16.5V15.5ZM4 15C3.86739 15 3.74021 15.0527 3.64645 15.1464C3.55268 15.2402 3.5 15.3674 3.5 15.5V16.5C3.5 16.6326 3.55268 16.7598 3.64645 16.8536C3.74021 16.9473 3.86739 17 4 17H5C5.13261 17 5.25979 16.9473 5.35355 16.8536C5.44732 16.7598 5.5 16.6326 5.5 16.5V15.5C5.5 15.3674 5.44732 15.2402 5.35355 15.1464C5.25979 15.0527 5.13261 15 5 15H4ZM8.5 4.5C8.5 4.36739 8.55268 4.24021 8.64645 4.14645C8.74021 4.05268 8.86739 4 9 4H18C18.1326 4 18.2598 4.05268 18.3536 4.14645C18.4473 4.24021 18.5 4.36739 18.5 4.5C18.5 4.63261 18.4473 4.75979 18.3536 4.85355C18.2598 4.94732 18.1326 5 18 5H9C8.86739 5 8.74021 4.94732 8.64645 4.85355C8.55268 4.75979 8.5 4.63261 8.5 4.5ZM8.5 10.5C8.5 10.3674 8.55268 10.2402 8.64645 10.1464C8.74021 10.0527 8.86739 10 9 10H18C18.1326 10 18.2598 10.0527 18.3536 10.1464C18.4473 10.2402 18.5 10.3674 18.5 10.5C18.5 10.6326 18.4473 10.7598 18.3536 10.8536C18.2598 10.9473 18.1326 11 18 11H9C8.86739 11 8.74021 10.9473 8.64645 10.8536C8.55268 10.7598 8.5 10.6326 8.5 10.5ZM8.5 16.5C8.5 16.3674 8.55268 16.2402 8.64645 16.1464C8.74021 16.0527 8.86739 16 9 16H18C18.1326 16 18.2598 16.0527 18.3536 16.1464C18.4473 16.2402 18.5 16.3674 18.5 16.5C18.5 16.6326 18.4473 16.7598 18.3536 16.8536C18.2598 16.9473 18.1326 17 18 17H9C8.86739 17 8.74021 16.9473 8.64645 16.8536C8.55268 16.7598 8.5 16.6326 8.5 16.5Z" fill="#D3AB1D"/>
</svg>
