<svg width="24" height="24" viewBox="0 0 24 24" fill="none" xmlns="http://www.w3.org/2000/svg">
<path d="M12 6.826C12.2421 6.826 12.4744 6.72981 12.6456 6.55859C12.8168 6.38737 12.913 6.15514 12.913 5.913C12.913 5.67086 12.8168 5.43863 12.6456 5.26741C12.4744 5.09619 12.2421 5 12 5C11.7579 5 11.5256 5.09619 11.3544 5.26741C11.1832 5.43863 11.087 5.67086 11.087 5.913C11.087 6.15514 11.1832 6.38737 11.3544 6.55859C11.5256 6.72981 11.7579 6.826 12 6.826ZM18.088 6.826C18.2079 6.826 18.3266 6.80238 18.4374 6.7565C18.5482 6.71062 18.6488 6.64337 18.7336 6.55859C18.8184 6.47381 18.8856 6.37316 18.9315 6.26239C18.9774 6.15162 19.001 6.0329 19.001 5.913C19.001 5.7931 18.9774 5.67438 18.9315 5.56361C18.8856 5.45284 18.8184 5.35219 18.7336 5.26741C18.6488 5.18263 18.5482 5.11538 18.4374 5.0695C18.3266 5.02362 18.2079 5 18.088 5C17.8458 5 17.6136 5.09619 17.4424 5.26741C17.2712 5.43863 17.175 5.67086 17.175 5.913C17.175 6.15514 17.2712 6.38737 17.4424 6.55859C17.6136 6.72981 17.8458 6.826 18.088 6.826ZM5.91199 6.826C6.03189 6.826 6.15061 6.80238 6.26138 6.7565C6.37215 6.71062 6.4728 6.64337 6.55758 6.55859C6.64236 6.47381 6.70961 6.37316 6.7555 6.26239C6.80138 6.15162 6.82499 6.0329 6.82499 5.913C6.82499 5.7931 6.80138 5.67438 6.7555 5.56361C6.70961 5.45284 6.64236 5.35219 6.55758 5.26741C6.4728 5.18263 6.37215 5.11538 6.26138 5.0695C6.15061 5.02362 6.03189 5 5.91199 5C5.66985 5 5.43762 5.09619 5.2664 5.26741C5.09518 5.43863 4.99899 5.67086 4.99899 5.913C4.99899 6.15514 5.09518 6.38737 5.2664 6.55859C5.43762 6.72981 5.66985 6.826 5.91199 6.826ZM12 12.913C12.2421 12.913 12.4744 12.8168 12.6456 12.6456C12.8168 12.4744 12.913 12.2421 12.913 12C12.913 11.7579 12.8168 11.5256 12.6456 11.3544C12.4744 11.1832 12.2421 11.087 12 11.087C11.7579 11.087 11.5256 11.1832 11.3544 11.3544C11.1832 11.5256 11.087 11.7579 11.087 12C11.087 12.2421 11.1832 12.4744 11.3544 12.6456C11.5256 12.8168 11.7579 12.913 12 12.913ZM18.088 12.913C18.3301 12.913 18.5624 12.8168 18.7336 12.6456C18.9048 12.4744 19.001 12.2421 19.001 12C19.001 11.7579 18.9048 11.5256 18.7336 11.3544C18.5624 11.1832 18.3301 11.087 18.088 11.087C17.8458 11.087 17.6136 11.1832 17.4424 11.3544C17.2712 11.5256 17.175 11.7579 17.175 12C17.175 12.2421 17.2712 12.4744 17.4424 12.6456C17.6136 12.8168 17.8458 12.913 18.088 12.913ZM5.91199 12.913C6.15414 12.913 6.38636 12.8168 6.55758 12.6456C6.7288 12.4744 6.82499 12.2421 6.82499 12C6.82499 11.7579 6.7288 11.5256 6.55758 11.3544C6.38636 11.1832 6.15414 11.087 5.91199 11.087C5.66985 11.087 5.43762 11.1832 5.2664 11.3544C5.09518 11.5256 4.99899 11.7579 4.99899 12C4.99899 12.2421 5.09518 12.4744 5.2664 12.6456C5.43762 12.8168 5.66985 12.913 5.91199 12.913ZM12 19C12.2421 19 12.4744 18.9038 12.6456 18.7326C12.8168 18.5614 12.913 18.3291 12.913 18.087C12.913 17.8449 12.8168 17.6126 12.6456 17.4414C12.4744 17.2702 12.2421 17.174 12 17.174C11.7579 17.174 11.5256 17.2702 11.3544 17.4414C11.1832 17.6126 11.087 17.8449 11.087 18.087C11.087 18.3291 11.1832 18.5614 11.3544 18.7326C11.5256 18.9038 11.7579 19 12 19ZM18.088 19C18.3301 19 18.5624 18.9038 18.7336 18.7326C18.9048 18.5614 19.001 18.3291 19.001 18.087C19.001 17.8449 18.9048 17.6126 18.7336 17.4414C18.5624 17.2702 18.3301 17.174 18.088 17.174C17.8458 17.174 17.6136 17.2702 17.4424 17.4414C17.2712 17.6126 17.175 17.8449 17.175 18.087C17.175 18.3291 17.2712 18.5614 17.4424 18.7326C17.6136 18.9038 17.8458 19 18.088 19ZM5.91199 19C6.15414 19 6.38636 18.9038 6.55758 18.7326C6.7288 18.5614 6.82499 18.3291 6.82499 18.087C6.82499 17.8449 6.7288 17.6126 6.55758 17.4414C6.38636 17.2702 6.15414 17.174 5.91199 17.174C5.66985 17.174 5.43762 17.2702 5.2664 17.4414C5.09518 17.6126 4.99899 17.8449 4.99899 18.087C4.99899 18.3291 5.09518 18.5614 5.2664 18.7326C5.43762 18.9038 5.66985 19 5.91199 19Z" stroke="#C9CACB" stroke-width="1.5" stroke-linecap="round" stroke-linejoin="round"/>
</svg>
