<svg width="16" height="19" viewBox="0 0 16 19" fill="none" xmlns="http://www.w3.org/2000/svg">
<g clip-path="url(#clip0_271_114)">
<path d="M15.0415 5.54167C15.2433 5.54189 15.4374 5.61916 15.5841 5.75767C15.7308 5.89619 15.8191 6.08551 15.8309 6.28694C15.8428 6.48837 15.7772 6.68672 15.6477 6.84145C15.5182 6.99619 15.3345 7.09563 15.1341 7.11946L15.0415 7.125V15.0417C15.2433 15.0419 15.4374 15.1192 15.5841 15.2577C15.7308 15.3962 15.8191 15.5855 15.8309 15.7869C15.8428 15.9884 15.7772 16.1867 15.6477 16.3415C15.5182 16.4962 15.3345 16.5956 15.1341 16.6195L15.0415 16.625H0.791522C0.589742 16.6248 0.395663 16.5475 0.248939 16.409C0.102214 16.2705 0.0139193 16.0812 0.00209412 15.8797C-0.0097311 15.6783 0.0558061 15.4799 0.185315 15.3252C0.314824 15.1705 0.498529 15.071 0.698897 15.0472L0.791522 15.0417V7.125C0.589742 7.12478 0.395663 7.04751 0.248939 6.909C0.102214 6.77048 0.0139193 6.58116 0.00209412 6.37973C-0.0097311 6.1783 0.0558061 5.97995 0.185315 5.82522C0.314824 5.67048 0.498529 5.57104 0.698897 5.54721L0.791522 5.54167H15.0415ZM13.4582 7.125H2.37486V15.0417H3.95819V9.5C3.95819 9.29004 4.0416 9.08867 4.19006 8.94021C4.33853 8.79174 4.53989 8.70833 4.74986 8.70833C4.95982 8.70833 5.16118 8.79174 5.30965 8.94021C5.45811 9.08867 5.54152 9.29004 5.54152 9.5V15.0417H7.12486V9.5C7.12486 9.29004 7.20826 9.08867 7.35673 8.94021C7.5052 8.79174 7.70656 8.70833 7.91652 8.70833C8.12648 8.70833 8.32785 8.79174 8.47631 8.94021C8.62478 9.08867 8.70819 9.29004 8.70819 9.5V15.0417H10.2915V9.5C10.2915 9.29004 10.3749 9.08867 10.5234 8.94021C10.6719 8.79174 10.8732 8.70833 11.0832 8.70833C11.2932 8.70833 11.4945 8.79174 11.643 8.94021C11.7914 9.08867 11.8749 9.29004 11.8749 9.5V15.0417H13.4582V7.125ZM12.6665 3.16667C12.8765 3.16667 13.0778 3.25008 13.2263 3.39854C13.3748 3.54701 13.4582 3.74837 13.4582 3.95833C13.4582 4.1683 13.3748 4.36966 13.2263 4.51813C13.0778 4.66659 12.8765 4.75 12.6665 4.75H3.16652C2.95656 4.75 2.7552 4.66659 2.60673 4.51813C2.45826 4.36966 2.37486 4.1683 2.37486 3.95833C2.37486 3.74837 2.45826 3.54701 2.60673 3.39854C2.7552 3.25008 2.95656 3.16667 3.16652 3.16667H12.6665Z" fill="#C9CACB"/>
</g>
<defs>
<clipPath id="clip0_271_114">
<rect width="15.8333" height="19" fill="white"/>
</clipPath>
</defs>
</svg>
