<svg width="17" height="16" viewBox="0 0 17 16" fill="none" xmlns="http://www.w3.org/2000/svg">
<path d="M0.5 1.5C0.5 1.10218 0.658035 0.720644 0.93934 0.43934C1.22064 0.158035 1.60218 0 2 0H3C3.39782 0 3.77936 0.158035 4.06066 0.43934C4.34196 0.720644 4.5 1.10218 4.5 1.5V2.5C4.5 2.89782 4.34196 3.27936 4.06066 3.56066C3.77936 3.84196 3.39782 4 3 4H2C1.60218 4 1.22064 3.84196 0.93934 3.56066C0.658035 3.27936 0.5 2.89782 0.5 2.5V1.5ZM2 1C1.86739 1 1.74021 1.05268 1.64645 1.14645C1.55268 1.24021 1.5 1.36739 1.5 1.5V2.5C1.5 2.63261 1.55268 2.75979 1.64645 2.85355C1.74021 2.94732 1.86739 3 2 3H3C3.13261 3 3.25979 2.94732 3.35355 2.85355C3.44732 2.75979 3.5 2.63261 3.5 2.5V1.5C3.5 1.36739 3.44732 1.24021 3.35355 1.14645C3.25979 1.05268 3.13261 1 3 1H2ZM0.5 7.5C0.5 7.10218 0.658035 6.72064 0.93934 6.43934C1.22064 6.15804 1.60218 6 2 6H3C3.39782 6 3.77936 6.15804 4.06066 6.43934C4.34196 6.72064 4.5 7.10218 4.5 7.5V8.5C4.5 8.89782 4.34196 9.27936 4.06066 9.56066C3.77936 9.84196 3.39782 10 3 10H2C1.60218 10 1.22064 9.84196 0.93934 9.56066C0.658035 9.27936 0.5 8.89782 0.5 8.5V7.5ZM2 7C1.86739 7 1.74021 7.05268 1.64645 7.14645C1.55268 7.24021 1.5 7.36739 1.5 7.5V8.5C1.5 8.63261 1.55268 8.75979 1.64645 8.85355C1.74021 8.94732 1.86739 9 2 9H3C3.13261 9 3.25979 8.94732 3.35355 8.85355C3.44732 8.75979 3.5 8.63261 3.5 8.5V7.5C3.5 7.36739 3.44732 7.24021 3.35355 7.14645C3.25979 7.05268 3.13261 7 3 7H2ZM0.5 13.5C0.5 13.1022 0.658035 12.7206 0.93934 12.4393C1.22064 12.158 1.60218 12 2 12H3C3.39782 12 3.77936 12.158 4.06066 12.4393C4.34196 12.7206 4.5 13.1022 4.5 13.5V14.5C4.5 14.8978 4.34196 15.2794 4.06066 15.5607C3.77936 15.842 3.39782 16 3 16H2C1.60218 16 1.22064 15.842 0.93934 15.5607C0.658035 15.2794 0.5 14.8978 0.5 14.5V13.5ZM2 13C1.86739 13 1.74021 13.0527 1.64645 13.1464C1.55268 13.2402 1.5 13.3674 1.5 13.5V14.5C1.5 14.6326 1.55268 14.7598 1.64645 14.8536C1.74021 14.9473 1.86739 15 2 15H3C3.13261 15 3.25979 14.9473 3.35355 14.8536C3.44732 14.7598 3.5 14.6326 3.5 14.5V13.5C3.5 13.3674 3.44732 13.2402 3.35355 13.1464C3.25979 13.0527 3.13261 13 3 13H2ZM6.5 2.5C6.5 2.36739 6.55268 2.24021 6.64645 2.14645C6.74021 2.05268 6.86739 2 7 2H16C16.1326 2 16.2598 2.05268 16.3536 2.14645C16.4473 2.24021 16.5 2.36739 16.5 2.5C16.5 2.63261 16.4473 2.75979 16.3536 2.85355C16.2598 2.94732 16.1326 3 16 3H7C6.86739 3 6.74021 2.94732 6.64645 2.85355C6.55268 2.75979 6.5 2.63261 6.5 2.5ZM6.5 8.5C6.5 8.36739 6.55268 8.24021 6.64645 8.14645C6.74021 8.05268 6.86739 8 7 8H16C16.1326 8 16.2598 8.05268 16.3536 8.14645C16.4473 8.24021 16.5 8.36739 16.5 8.5C16.5 8.63261 16.4473 8.75979 16.3536 8.85355C16.2598 8.94732 16.1326 9 16 9H7C6.86739 9 6.74021 8.94732 6.64645 8.85355C6.55268 8.75979 6.5 8.63261 6.5 8.5ZM6.5 14.5C6.5 14.3674 6.55268 14.2402 6.64645 14.1464C6.74021 14.0527 6.86739 14 7 14H16C16.1326 14 16.2598 14.0527 16.3536 14.1464C16.4473 14.2402 16.5 14.3674 16.5 14.5C16.5 14.6326 16.4473 14.7598 16.3536 14.8536C16.2598 14.9473 16.1326 15 16 15H7C6.86739 15 6.74021 14.9473 6.64645 14.8536C6.55268 14.7598 6.5 14.6326 6.5 14.5Z" fill="white"/>
</svg>
