<svg width="16" height="16" viewBox="0 0 16 16" fill="none" xmlns="http://www.w3.org/2000/svg">
<path d="M3.3333 5.16666C3.23447 5.16675 3.13789 5.19612 3.05575 5.25107C2.9736 5.30602 2.90958 5.38407 2.87178 5.47538C2.83397 5.56669 2.82407 5.66716 2.84332 5.76409C2.86258 5.86102 2.91013 5.95007 2.97997 6.02L7.64663 10.6867C7.74038 10.7803 7.86747 10.8329 7.99997 10.8329C8.13247 10.8329 8.25955 10.7803 8.3533 10.6867L13.02 6.02C13.0898 5.95007 13.1374 5.86102 13.1566 5.76409C13.1759 5.66716 13.166 5.56669 13.1282 5.47538C13.0904 5.38407 13.0263 5.30602 12.9442 5.25107C12.862 5.19612 12.7655 5.16675 12.6666 5.16666H3.3333Z" fill="white"/>
</svg>
