<svg width="18" height="18" viewBox="0 0 18 18" fill="none" xmlns="http://www.w3.org/2000/svg">
<path d="M1.08337 2.33333C1.08337 2.11232 1.17117 1.90036 1.32745 1.74408C1.48373 1.5878 1.69569 1.5 1.91671 1.5H6.91671L9.00004 4H16.0834C16.3044 4 16.5163 4.0878 16.6726 4.24408C16.8289 4.40036 16.9167 4.61232 16.9167 4.83333V15.6667C16.9167 15.8877 16.8289 16.0996 16.6726 16.2559C16.5163 16.4122 16.3044 16.5 16.0834 16.5H1.91671C1.69569 16.5 1.48373 16.4122 1.32745 16.2559C1.17117 16.0996 1.08337 15.8877 1.08337 15.6667V2.33333Z" stroke="#C9CACB" stroke-width="1.66667" stroke-linejoin="round"/>
<path d="M7.25004 7.75H10.75L11.9167 9.22083L9.00004 12.75L6.08337 9.22083L7.25004 7.75Z" stroke="#C9CACB" stroke-width="1.66667" stroke-linecap="round" stroke-linejoin="round"/>
</svg>
