<svg width="21" height="20" viewBox="0 0 21 20" fill="none" xmlns="http://www.w3.org/2000/svg">
<path d="M18.8334 10C18.8334 14.6025 15.1025 18.3333 10.5 18.3333C5.89752 18.3333 2.16669 14.6025 2.16669 10C2.16669 5.39751 5.89752 1.66667 10.5 1.66667V3.33334C8.9038 3.33352 7.36062 3.90642 6.15098 4.94791C4.94134 5.9894 4.14553 7.43034 3.90821 9.00882C3.67089 10.5873 4.0078 12.1985 4.85771 13.5497C5.70762 14.9008 7.01411 15.9022 8.53971 16.3717C10.0653 16.8413 11.7087 16.7478 13.1713 16.1084C14.6339 15.469 15.8185 14.3261 16.5098 12.8873C17.2011 11.4485 17.3532 9.8095 16.9386 8.26808C16.5239 6.72667 15.5699 5.3852 14.25 4.48751V6.66667H12.5834V1.66667H17.5834V3.33334H15.5C16.5355 4.10911 17.3758 5.11555 17.9545 6.27278C18.5331 7.43002 18.834 8.70618 18.8334 10Z" fill="#B7B7B7"/>
</svg>
