<svg width="14" height="8" viewBox="0 0 14 8" fill="none" xmlns="http://www.w3.org/2000/svg">
<path d="M0.998094 8C0.146093 8 -0.298907 7.014 0.215093 6.377L0.291093 6.293L6.29109 0.292999C6.46329 0.120822 6.69239 0.0173926 6.93541 0.00211143C7.17844 -0.0131693 7.41869 0.0607476 7.61109 0.209999L7.70509 0.292999L13.7051 6.293L13.7881 6.387L13.8421 6.464L13.8961 6.56L13.9131 6.596L13.9401 6.663L13.9721 6.771L13.9821 6.824L13.9921 6.884L13.9961 6.941V7.059L13.9911 7.117L13.9821 7.177L13.9721 7.229L13.9401 7.337L13.9131 7.404L13.8431 7.536L13.7781 7.626L13.7051 7.707L13.6111 7.79L13.5341 7.844L13.4381 7.898L13.4021 7.915L13.3351 7.942L13.2271 7.974L13.1741 7.984L13.1141 7.994L13.0571 7.998L0.998094 8Z" fill="white"/>
</svg>
