<svg width="18" height="18" viewBox="0 0 18 18" fill="none" xmlns="http://www.w3.org/2000/svg">
<path d="M17.75 2.75V1.5H15.875V0.25H14.625V1.5H14C13.3106 1.5 12.75 2.06125 12.75 2.75V4C12.75 4.68937 13.3106 5.25 14 5.25H16.5V6.5H12.75V7.75H14.625V9H15.875V7.75H16.5C17.1894 7.75 17.75 7.18937 17.75 6.5V5.25C17.75 4.56125 17.1894 4 16.5 4H14V2.75H17.75ZM14 11.5V12.75H15.6163L13.375 14.9913L11.9425 13.5581C11.8255 13.4411 11.6668 13.3752 11.5013 13.375H11.5C11.3345 13.3752 11.1758 13.4411 11.0588 13.5581L7.75 16.8663L8.63375 17.75L11.5006 14.8837L12.9331 16.3169C13.0503 16.434 13.2093 16.4999 13.375 16.4999C13.5407 16.4999 13.6997 16.434 13.8169 16.3169L16.5 13.6337V15.25H17.75V11.5H14ZM1.5 17.75H0.25V14.625C0.25 12.2125 2.2125 10.25 4.625 10.25H8.375C9.61812 10.25 10.8062 10.7812 11.6356 11.7081L10.7044 12.5419C10.4113 12.2141 10.0523 11.9519 9.65088 11.7723C9.24948 11.5928 8.81472 11.5 8.375 11.5H4.625C2.90188 11.5 1.5 12.9019 1.5 14.625V17.75ZM6.5 9C7.66032 9 8.77312 8.53906 9.59359 7.71859C10.4141 6.89812 10.875 5.78532 10.875 4.625C10.875 3.46468 10.4141 2.35188 9.59359 1.53141C8.77312 0.710936 7.66032 0.25 6.5 0.25C5.33968 0.25 4.22688 0.710936 3.40641 1.53141C2.58594 2.35188 2.125 3.46468 2.125 4.625C2.125 5.78532 2.58594 6.89812 3.40641 7.71859C4.22688 8.53906 5.33968 9 6.5 9ZM6.5 1.5C7.3288 1.5 8.12366 1.82924 8.70971 2.41529C9.29576 3.00134 9.625 3.7962 9.625 4.625C9.625 5.4538 9.29576 6.24866 8.70971 6.83471C8.12366 7.42076 7.3288 7.75 6.5 7.75C5.6712 7.75 4.87634 7.42076 4.29029 6.83471C3.70424 6.24866 3.375 5.4538 3.375 4.625C3.375 3.7962 3.70424 3.00134 4.29029 2.41529C4.87634 1.82924 5.6712 1.5 6.5 1.5Z" fill="#C9CACB"/>
</svg>
