<svg width="26" height="26" viewBox="0 0 26 26" fill="none" xmlns="http://www.w3.org/2000/svg">
<path opacity="0.5" fill-rule="evenodd" clip-rule="evenodd" d="M7.85449 6.77949V7.04166C7.85449 7.25715 7.94009 7.46381 8.09247 7.61619C8.24484 7.76856 8.4515 7.85416 8.66699 7.85416C8.88248 7.85416 9.08914 7.76856 9.24152 7.61619C9.39389 7.46381 9.47949 7.25715 9.47949 7.04166V6.77083H16.5212V7.04166C16.5212 7.25715 16.6068 7.46381 16.7591 7.61619C16.9115 7.76856 17.1182 7.85416 17.3337 7.85416C17.5491 7.85416 17.7558 7.76856 17.9082 7.61619C18.0606 7.46381 18.1462 7.25715 18.1462 7.04166V6.77949C18.266 6.78383 18.3751 6.78997 18.4733 6.79791C18.7853 6.82283 18.9337 6.86833 19.0312 6.91816C19.2869 7.04816 19.4938 7.25508 19.6238 7.51075C19.6737 7.60825 19.7192 7.75666 19.7441 8.06758C19.7701 8.38824 19.7712 8.80424 19.7712 9.42499V10.0208H6.22949V9.42499C6.22949 8.80533 6.22949 8.38824 6.25658 8.06758C6.28149 7.75666 6.32699 7.60825 6.37683 7.51075C6.50673 7.25553 6.71419 7.04806 6.96941 6.91816C7.06691 6.86833 7.21533 6.82283 7.52624 6.79791C7.63549 6.78901 7.74494 6.78287 7.85449 6.77949ZM11.3753 7.58333C11.1598 7.58333 10.9532 7.66893 10.8008 7.8213C10.6484 7.97368 10.5628 8.18034 10.5628 8.39583C10.5628 8.61132 10.6484 8.81798 10.8008 8.97035C10.9532 9.12273 11.1598 9.20833 11.3753 9.20833H14.6253C14.8408 9.20833 15.0475 9.12273 15.1998 8.97035C15.3522 8.81798 15.4378 8.61132 15.4378 8.39583C15.4378 8.18034 15.3522 7.97368 15.1998 7.8213C15.0475 7.66893 14.8408 7.58333 14.6253 7.58333H11.3753Z" fill="#258568"/>
<path d="M9.20866 15.1667C9.56781 15.1667 9.91224 15.024 10.1662 14.77C10.4202 14.5161 10.5628 14.1716 10.5628 13.8125C10.5628 13.4533 10.4202 13.1089 10.1662 12.855C9.91224 12.601 9.56781 12.4583 9.20866 12.4583C8.84951 12.4583 8.50507 12.601 8.25112 12.855C7.99716 13.1089 7.85449 13.4533 7.85449 13.8125C7.85449 14.1716 7.99716 14.5161 8.25112 14.77C8.50507 15.024 8.84951 15.1667 9.20866 15.1667ZM9.20866 18.9583C9.56781 18.9583 9.91224 18.8157 10.1662 18.5617C10.4202 18.3077 10.5628 17.9633 10.5628 17.6042C10.5628 17.245 10.4202 16.9006 10.1662 16.6466C9.91224 16.3927 9.56781 16.25 9.20866 16.25C8.84951 16.25 8.50507 16.3927 8.25112 16.6466C7.99716 16.9006 7.85449 17.245 7.85449 17.6042C7.85449 17.9633 7.99716 18.3077 8.25112 18.5617C8.50507 18.8157 8.84951 18.9583 9.20866 18.9583ZM14.3545 13.8125C14.3545 14.1716 14.2118 14.5161 13.9579 14.77C13.7039 15.024 13.3595 15.1667 13.0003 15.1667C12.6412 15.1667 12.2967 15.024 12.0428 14.77C11.7888 14.5161 11.6462 14.1716 11.6462 13.8125C11.6462 13.4533 11.7888 13.1089 12.0428 12.855C12.2967 12.601 12.6412 12.4583 13.0003 12.4583C13.3595 12.4583 13.7039 12.601 13.9579 12.855C14.2118 13.1089 14.3545 13.4533 14.3545 13.8125ZM13.0003 18.9583C13.3595 18.9583 13.7039 18.8157 13.9579 18.5617C14.2118 18.3077 14.3545 17.9633 14.3545 17.6042C14.3545 17.245 14.2118 16.9006 13.9579 16.6466C13.7039 16.3927 13.3595 16.25 13.0003 16.25C12.6412 16.25 12.2967 16.3927 12.0428 16.6466C11.7888 16.9006 11.6462 17.245 11.6462 17.6042C11.6462 17.9633 11.7888 18.3077 12.0428 18.5617C12.2967 18.8157 12.6412 18.9583 13.0003 18.9583ZM18.1462 13.8125C18.1462 14.1716 18.0035 14.5161 17.7495 14.77C17.4956 15.024 17.1511 15.1667 16.792 15.1667C16.4328 15.1667 16.0884 15.024 15.8345 14.77C15.5805 14.5161 15.4378 14.1716 15.4378 13.8125C15.4378 13.4533 15.5805 13.1089 15.8345 12.855C16.0884 12.601 16.4328 12.4583 16.792 12.4583C17.1511 12.4583 17.4956 12.601 17.7495 12.855C18.0035 13.1089 18.1462 13.4533 18.1462 13.8125Z" fill="#6D6D6D"/>
<path fill-rule="evenodd" clip-rule="evenodd" d="M8.66699 3.52083C8.88248 3.52083 9.08914 3.60643 9.24152 3.7588C9.39389 3.91118 9.47949 4.11784 9.47949 4.33333V5.14583H16.5212V4.33333C16.5212 4.11784 16.6068 3.91118 16.7591 3.7588C16.9115 3.60643 17.1182 3.52083 17.3337 3.52083C17.5491 3.52083 17.7558 3.60643 17.9082 3.7588C18.0606 3.91118 18.1462 4.11784 18.1462 4.33333V5.15449C18.3108 5.15883 18.4643 5.16677 18.6066 5.17833C19.0182 5.21083 19.4039 5.2845 19.769 5.47083C20.3297 5.75647 20.7855 6.21231 21.0712 6.77299C21.2575 7.13808 21.3312 7.52375 21.3637 7.93541C21.3962 8.33083 21.3962 8.81291 21.3962 9.3925V17.6908C21.3962 18.2704 21.3962 18.7525 21.3637 19.1479C21.3312 19.5596 21.2575 19.9452 21.0712 20.3103C20.7858 20.8708 20.3304 21.3267 19.7701 21.6125C19.4039 21.7988 19.0182 21.8725 18.6066 21.905C18.2112 21.9375 17.7291 21.9375 17.1506 21.9375H8.85116C8.27158 21.9375 7.78949 21.9375 7.39408 21.905C6.98241 21.8725 6.59674 21.7988 6.23166 21.6125C5.67131 21.3274 5.2155 20.8724 4.92949 20.3125C4.74316 19.9463 4.66949 19.5607 4.63699 19.149C4.60449 18.7536 4.60449 18.2715 4.60449 17.693V9.3925C4.60449 8.81291 4.60449 8.33083 4.63699 7.93541C4.66949 7.52375 4.74316 7.13808 4.92949 6.77299C5.21514 6.21231 5.67098 5.75647 6.23166 5.47083C6.59674 5.2845 6.98241 5.21083 7.39408 5.17833C7.53635 5.16677 7.68983 5.15883 7.85449 5.15449V4.33333C7.85449 4.22663 7.87551 4.12098 7.91634 4.0224C7.95717 3.92382 8.01702 3.83425 8.09247 3.7588C8.16792 3.68336 8.25748 3.62351 8.35606 3.58268C8.45464 3.54184 8.56029 3.52083 8.66699 3.52083ZM7.85449 7.04166V6.7795C7.74494 6.78287 7.63549 6.78901 7.52624 6.79791C7.21533 6.82283 7.06691 6.86833 6.96941 6.91816C6.71419 7.04806 6.50673 7.25553 6.37683 7.51075C6.32699 7.60825 6.28149 7.75666 6.25658 8.06758C6.23058 8.38825 6.22949 8.80424 6.22949 9.42499V10.0208H19.7712V9.42499C19.7712 8.80533 19.7712 8.38825 19.7441 8.06758C19.7192 7.75666 19.6737 7.60825 19.6238 7.51075C19.4939 7.25553 19.2865 7.04806 19.0312 6.91816C18.9337 6.86833 18.7853 6.82283 18.4733 6.79791C18.3644 6.78902 18.2554 6.78288 18.1462 6.7795V7.04166C18.1462 7.25715 18.0606 7.46381 17.9082 7.61619C17.7558 7.76856 17.5491 7.85416 17.3337 7.85416C17.1182 7.85416 16.9115 7.76856 16.7591 7.61619C16.6068 7.46381 16.5212 7.25715 16.5212 7.04166V6.77083H9.47949V7.04166C9.47949 7.25715 9.39389 7.46381 9.24152 7.61619C9.08914 7.76856 8.88248 7.85416 8.66699 7.85416C8.4515 7.85416 8.24484 7.76856 8.09247 7.61619C7.94009 7.46381 7.85449 7.25715 7.85449 7.04166ZM19.7712 11.1042H6.22949V17.6583C6.22949 18.278 6.22949 18.6951 6.25658 19.0147C6.28149 19.3267 6.32699 19.4751 6.37683 19.5726C6.50683 19.8282 6.71374 20.0352 6.96941 20.1652C7.06691 20.215 7.21533 20.2605 7.52624 20.2854C7.84691 20.3114 8.26291 20.3125 8.88366 20.3125H17.117C17.7367 20.3125 18.1537 20.3125 18.4733 20.2854C18.7853 20.2605 18.9337 20.215 19.0312 20.1652C19.2865 20.0353 19.4939 19.8278 19.6238 19.5726C19.6737 19.4751 19.7192 19.3267 19.7441 19.0147C19.7701 18.6951 19.7712 18.278 19.7712 17.6583V11.1042Z" fill="#6D6D6D"/>
</svg>
