<svg width="14" height="17" viewBox="0 0 14 17" fill="none" xmlns="http://www.w3.org/2000/svg">
<path d="M11.875 1.96875H10.0938V1.375C10.0938 1.06006 9.96864 0.75801 9.74594 0.535311C9.52324 0.312611 9.22119 0.1875 8.90625 0.1875H4.15625C3.84131 0.1875 3.53926 0.312611 3.31656 0.535311C3.09386 0.75801 2.96875 1.06006 2.96875 1.375V1.96875H1.1875C0.872555 1.96875 0.57051 2.09386 0.347811 2.31656C0.125111 2.53926 0 2.84131 0 3.15625V15.625C0 15.9399 0.125111 16.242 0.347811 16.4647C0.57051 16.6874 0.872555 16.8125 1.1875 16.8125H11.875C12.1899 16.8125 12.492 16.6874 12.7147 16.4647C12.9374 16.242 13.0625 15.9399 13.0625 15.625V3.15625C13.0625 2.84131 12.9374 2.53926 12.7147 2.31656C12.492 2.09386 12.1899 1.96875 11.875 1.96875ZM4.15625 1.375H8.90625V3.75H4.15625V1.375ZM11.875 15.625H1.1875V3.15625H2.96875V4.9375H10.0938V3.15625H11.875V15.625Z" fill="#C9CACB"/>
</svg>
