<svg width="19" height="23" viewBox="0 0 19 23" fill="none" xmlns="http://www.w3.org/2000/svg">
<path d="M18.4884 15.6655C18.4073 15.5679 18.3277 15.4702 18.2496 15.376C17.1754 14.0767 16.5255 13.2925 16.5255 9.61426C16.5255 7.70996 16.0699 6.14746 15.172 4.97559C14.5099 4.10986 13.6148 3.45312 12.4352 2.96777C12.42 2.95933 12.4064 2.94825 12.3951 2.93506C11.9708 1.51416 10.8097 0.5625 9.50009 0.5625C8.19052 0.5625 7.02988 1.51416 6.60556 2.93359C6.59426 2.94632 6.58089 2.95705 6.56601 2.96533C3.81308 4.09863 2.47519 6.27295 2.47519 9.61279C2.47519 13.2925 1.82627 14.0767 0.751071 15.3745C0.672946 15.4688 0.593356 15.5645 0.512302 15.6641C0.302927 15.9166 0.170271 16.2238 0.130033 16.5493C0.0897947 16.8748 0.143659 17.2051 0.285251 17.501C0.58652 18.1357 1.22861 18.5298 1.96152 18.5298H17.044C17.7735 18.5298 18.4112 18.1362 18.7135 17.5044C18.8557 17.2084 18.9101 16.8779 18.8702 16.552C18.8303 16.2261 18.6978 15.9184 18.4884 15.6655ZM9.50009 22.4375C10.2057 22.4369 10.898 22.2454 11.5035 21.8832C12.109 21.5211 12.6053 21.0017 12.9395 20.3804C12.9553 20.3506 12.9631 20.3172 12.9621 20.2836C12.9612 20.2499 12.9515 20.217 12.9341 20.1882C12.9167 20.1594 12.8922 20.1355 12.8628 20.1189C12.8335 20.1024 12.8004 20.0937 12.7667 20.0938H6.23447C6.20074 20.0936 6.16756 20.1022 6.13815 20.1188C6.10874 20.1353 6.08411 20.1591 6.06666 20.188C6.0492 20.2168 6.03952 20.2497 6.03855 20.2835C6.03758 20.3172 6.04536 20.3506 6.06113 20.3804C6.39537 21.0017 6.89153 21.5209 7.49697 21.8831C8.10242 22.2453 8.79459 22.4368 9.50009 22.4375Z" fill="#838FA4"/>
</svg>
