<svg width="20" height="20" viewBox="0 0 20 20" fill="none" xmlns="http://www.w3.org/2000/svg">
<path d="M12.2383 9.59375L5.32013 8.375V17.3806C5.32005 17.4785 5.33929 17.5754 5.37674 17.6659C5.4142 17.7563 5.46914 17.8384 5.53841 17.9076C5.60768 17.9768 5.68992 18.0316 5.78041 18.0689C5.87091 18.1062 5.96787 18.1252 6.06575 18.125H18.0033C18.1012 18.1254 18.1983 18.1065 18.289 18.0692C18.3796 18.032 18.462 17.9772 18.5314 17.908C18.6008 17.8389 18.6559 17.7567 18.6934 17.6662C18.7309 17.5756 18.7502 17.4786 18.7501 17.3806V14.0625L12.2383 9.59375Z" fill="#185C37"/>
<path d="M12.2383 1.875H6.06575C5.96787 1.87476 5.87091 1.89383 5.78041 1.93114C5.68992 1.96844 5.60768 2.02324 5.53841 2.0924C5.46914 2.16155 5.4142 2.2437 5.37674 2.33413C5.33929 2.42456 5.32005 2.5215 5.32013 2.61938V5.9375L12.2383 10L15.9014 11.2188L18.7501 10V5.9375L12.2383 1.875Z" fill="#21A366"/>
<path d="M5.32013 5.9375H12.2383V10H5.32013V5.9375Z" fill="#107C41"/>
<path opacity="0.1" d="M10.2714 5.125H5.32013V15.2812H10.2714C10.4687 15.2803 10.6576 15.2016 10.7973 15.0623C10.937 14.9229 11.0162 14.7342 11.0176 14.5369V5.86937C11.0162 5.67209 10.937 5.48333 10.7973 5.34399C10.6576 5.20466 10.4687 5.12598 10.2714 5.125Z" fill="black"/>
<path opacity="0.2" d="M9.8645 5.53125H5.32013V15.6875H9.8645C10.0618 15.6865 10.2508 15.6078 10.3904 15.4685C10.5301 15.3292 10.6093 15.1404 10.6108 14.9431V6.27562C10.6093 6.07834 10.5301 5.88958 10.3904 5.75024C10.2508 5.61091 10.0618 5.53223 9.8645 5.53125Z" fill="black"/>
<path opacity="0.2" d="M9.8645 5.53125H5.32013V14.875H9.8645C10.0618 14.874 10.2508 14.7953 10.3904 14.656C10.5301 14.5167 10.6093 14.3279 10.6108 14.1306V6.27562C10.6093 6.07834 10.5301 5.88958 10.3904 5.75024C10.2508 5.61091 10.0618 5.53223 9.8645 5.53125Z" fill="black"/>
<path opacity="0.2" d="M9.45763 5.53125H5.32013V14.875H9.45763C9.65492 14.874 9.84388 14.7953 9.98356 14.656C10.1232 14.5167 10.2024 14.3279 10.2039 14.1306V6.27562C10.2024 6.07834 10.1232 5.88958 9.98356 5.75024C9.84388 5.61091 9.65492 5.53223 9.45763 5.53125Z" fill="black"/>
<path d="M1.99625 5.53125H9.4575C9.65514 5.53109 9.84477 5.6094 9.9847 5.74898C10.1246 5.88856 10.2034 6.07799 10.2038 6.27563V13.7244C10.2034 13.922 10.1246 14.1114 9.9847 14.251C9.84477 14.3906 9.65514 14.4689 9.4575 14.4688H1.99625C1.89832 14.4691 1.80128 14.4501 1.71072 14.4128C1.62015 14.3755 1.53784 14.3207 1.4685 14.2516C1.39916 14.1824 1.34417 14.1002 1.30667 14.0098C1.26918 13.9193 1.24992 13.8223 1.25 13.7244V6.27563C1.24992 6.1777 1.26918 6.08071 1.30667 5.99024C1.34417 5.89977 1.39916 5.81759 1.4685 5.74843C1.53784 5.67927 1.62015 5.62448 1.71072 5.58721C1.80128 5.54994 1.89832 5.53092 1.99625 5.53125Z" fill="url(#paint0_linear_1_251)"/>
<path d="M3.56262 12.4206L5.132 9.99313L3.6945 7.57938H4.84887L5.63325 9.125C5.70575 9.27125 5.75825 9.38 5.782 9.4525H5.79262C5.84387 9.33542 5.89804 9.22167 5.95512 9.11125L6.79387 7.58188H7.85637L6.382 9.98188L7.89387 12.4225H6.76325L5.857 10.7281C5.81504 10.6552 5.77929 10.5789 5.75012 10.5H5.73512C5.70863 10.5769 5.6734 10.6505 5.63012 10.7194L4.697 12.4206H3.56262Z" fill="white"/>
<path d="M18.0038 1.875H12.2382V5.9375H18.75V2.61938C18.7501 2.52145 18.7309 2.42446 18.6934 2.33399C18.6559 2.24352 18.6009 2.16134 18.5315 2.09218C18.4622 2.02302 18.3799 1.96823 18.2893 1.93096C18.1988 1.89369 18.1017 1.87467 18.0038 1.875Z" fill="#33C481"/>
<path d="M12.2382 10H18.75V14.0625H12.2382V10Z" fill="#107C41"/>
<defs>
<linearGradient id="paint0_linear_1_251" x1="2.80875" y1="4.94625" x2="8.645" y2="15.0538" gradientUnits="userSpaceOnUse">
<stop stop-color="#18884F"/>
<stop offset="0.5" stop-color="#117E43"/>
<stop offset="1" stop-color="#0B6631"/>
</linearGradient>
</defs>
</svg>
