<svg width="20" height="20" viewBox="0 0 20 20" fill="none" xmlns="http://www.w3.org/2000/svg">
<path d="M15.0625 1.295L18.54 4.92V18.705H5.54938V18.75H18.5844V4.96562L15.0625 1.295Z" fill="#909090"/>
<path d="M5.555 18.655V1.3H14.9981L18.49 4.94073V18.655H5.555Z" fill="#F4F4F4" stroke="#CBCBCB" stroke-width="0.1"/>
<path d="M5.4094 2.1875H1.41565V6.45437H13.9781V2.1875H5.4094Z" fill="#7A7B7C"/>
<path d="M14.045 6.38188H1.49689V2.11188H14.045V6.38188Z" fill="#DD2025"/>
<path d="M5.65751 2.83375H4.84064V5.83375H5.48314V4.82187L5.62501 4.83C5.76292 4.8281 5.89955 4.80339 6.02939 4.75687C6.14353 4.71812 6.24843 4.6562 6.33751 4.575C6.42886 4.4984 6.50064 4.40113 6.54689 4.29125C6.61017 4.10919 6.63257 3.91544 6.61251 3.72375C6.60895 3.58678 6.58493 3.45111 6.54126 3.32125C6.50191 3.22738 6.44339 3.14276 6.36945 3.0728C6.29552 3.00285 6.20779 2.9491 6.11189 2.915C6.02921 2.88437 5.94352 2.86259 5.85626 2.85C5.79034 2.83926 5.72367 2.83383 5.65689 2.83375M5.53876 4.2675H5.48314V3.3425H5.60376C5.657 3.33866 5.71042 3.34683 5.76007 3.36641C5.80973 3.38599 5.85435 3.41648 5.89064 3.45562C5.96584 3.55625 6.00601 3.67875 6.00501 3.80437C6.00501 3.95812 6.00501 4.0975 5.86626 4.19562C5.76633 4.25067 5.65253 4.27605 5.53876 4.2675ZM7.83314 2.82562C7.76376 2.82562 7.69626 2.83062 7.64876 2.8325L7.50001 2.83625H7.01251V5.83625H7.58626C7.8055 5.84188 8.02374 5.80473 8.22876 5.72687C8.39384 5.66168 8.53995 5.55618 8.65376 5.42C8.76529 5.28322 8.84493 5.1233 8.88689 4.95187C8.93618 4.75807 8.96013 4.5587 8.95814 4.35875C8.97037 4.12259 8.9521 3.88585 8.90376 3.65437C8.85749 3.48418 8.77185 3.32725 8.65376 3.19625C8.56113 3.09031 8.44719 3.00512 8.31939 2.94625C8.2099 2.8955 8.0947 2.85814 7.97626 2.835C7.92917 2.82728 7.88148 2.82372 7.83376 2.82437M7.72001 5.285H7.65751V3.37H7.66564C7.79449 3.3551 7.92488 3.37835 8.04064 3.43687C8.12543 3.50457 8.19452 3.58987 8.24314 3.68687C8.29561 3.78895 8.32586 3.901 8.33189 4.01562C8.33751 4.15312 8.33189 4.26562 8.33189 4.35875C8.3342 4.46601 8.3273 4.57328 8.31126 4.67937C8.2916 4.78816 8.25601 4.89346 8.20564 4.99187C8.14873 5.08365 8.07101 5.16073 7.97876 5.21687C7.90171 5.26687 7.81035 5.29015 7.71876 5.28312M10.8938 2.83625H9.37501V5.83625H10.0175V4.64625H10.83V4.08875H10.0175V3.39375H10.8925V2.83625" fill="#464648"/>
<path d="M13.6131 12.6594C13.6131 12.6594 15.6056 12.2981 15.6056 12.9788C15.6056 13.6594 14.3712 13.3825 13.6131 12.6594ZM12.14 12.7113C11.8234 12.781 11.5148 12.8834 11.2194 13.0169L11.4694 12.4544C11.7194 11.8919 11.9787 11.125 11.9787 11.125C12.2763 11.6276 12.6235 12.0991 13.015 12.5325C12.7202 12.5764 12.4281 12.6365 12.14 12.7125V12.7113ZM11.3512 8.64876C11.3512 8.05563 11.5431 7.89376 11.6925 7.89376C11.8419 7.89376 12.01 7.96563 12.0156 8.48063C11.9669 8.99847 11.8584 9.50894 11.6925 10.0019C11.4644 9.5883 11.3466 9.12293 11.3506 8.65063L11.3512 8.64876ZM8.44562 15.2213C7.83437 14.8556 9.72749 13.73 10.0706 13.6938C10.0687 13.6944 9.08562 15.6038 8.44562 15.2213ZM16.1875 13.0594C16.1812 12.9969 16.125 12.305 14.8937 12.3344C14.3805 12.3254 13.8675 12.3616 13.3606 12.4425C12.8693 11.948 12.4464 11.3899 12.1031 10.7831C12.3192 10.1577 12.4502 9.50601 12.4925 8.84563C12.4744 8.09563 12.295 7.66563 11.72 7.67188C11.145 7.67813 11.0612 8.18126 11.1369 8.93001C11.2109 9.43318 11.3506 9.92445 11.5525 10.3913C11.5525 10.3913 11.2869 11.2181 10.9356 12.0406C10.5844 12.8631 10.3444 13.2944 10.3444 13.2944C9.73348 13.493 9.15845 13.7884 8.64124 14.1694C8.12624 14.6488 7.91687 15.0169 8.18812 15.385C8.42187 15.7025 9.23999 15.7744 9.97124 14.8163C10.3591 14.3209 10.714 13.8006 11.0337 13.2588C11.0337 13.2588 12.1487 12.9531 12.4956 12.8694C12.8425 12.7856 13.2619 12.7194 13.2619 12.7194C13.2619 12.7194 14.28 13.7438 15.2619 13.7075C16.2437 13.6713 16.1962 13.1206 16.19 13.0606" fill="#DD2025"/>
<path d="M14.9713 1.29813V4.96875H18.4919L14.9713 1.29813Z" fill="#909090"/>
<path d="M17.3677 4.42063H15.5194V2.49363L17.3677 4.42063Z" fill="#F4F4F4" stroke="#D4D4D4"/>
<path d="M5.60936 2.78562H4.79248V5.78562H5.43748V4.77437L5.57998 4.78249C5.71788 4.78059 5.85452 4.75589 5.98436 4.70937C6.09849 4.67061 6.2034 4.6087 6.29248 4.52749C6.38315 4.45068 6.45427 4.35343 6.49998 4.24374C6.56326 4.06169 6.58566 3.86793 6.56561 3.67624C6.56204 3.53928 6.53803 3.40361 6.49436 3.27374C6.455 3.17987 6.39648 3.09526 6.32255 3.0253C6.24861 2.95535 6.16088 2.9016 6.06498 2.86749C5.98192 2.83657 5.89581 2.81458 5.80811 2.80187C5.74219 2.79114 5.67552 2.7857 5.60873 2.78562M5.49061 4.21937H5.43498V3.29437H5.55623C5.60947 3.29053 5.66289 3.2987 5.71254 3.31828C5.7622 3.33786 5.80682 3.36835 5.84311 3.40749C5.9183 3.50813 5.95848 3.63062 5.95748 3.75624C5.95748 3.90999 5.95748 4.04937 5.81873 4.14749C5.7188 4.20254 5.605 4.2273 5.49123 4.21874M7.78498 2.77749C7.71561 2.77749 7.64811 2.78249 7.60061 2.78437L7.45373 2.78812H6.96623V5.78812H7.53998C7.75922 5.79376 7.97746 5.75661 8.18248 5.67874C8.34755 5.61355 8.49367 5.50805 8.60748 5.37187C8.71901 5.23509 8.79865 5.07517 8.84061 4.90374C8.8899 4.70995 8.91385 4.51058 8.91186 4.31062C8.92409 4.07447 8.90581 3.83772 8.85748 3.60624C8.81121 3.43605 8.72557 3.27912 8.60748 3.14812C8.51485 3.04219 8.40091 2.957 8.27311 2.89812C8.16362 2.84737 8.04841 2.81002 7.92998 2.78687C7.88288 2.77915 7.8352 2.77559 7.78748 2.77624M7.67373 5.23687H7.61123V3.32187H7.61936C7.74821 3.30697 7.8786 3.33022 7.99436 3.38874C8.07914 3.45645 8.14823 3.54174 8.19686 3.63874C8.24933 3.74083 8.27958 3.85287 8.28561 3.96749C8.29123 4.10499 8.28561 4.21749 8.28561 4.31062C8.28792 4.41789 8.28102 4.52516 8.26498 4.63124C8.24532 4.74003 8.20973 4.84533 8.15936 4.94374C8.10245 5.03552 8.02473 5.1126 7.93248 5.16874C7.85543 5.21875 7.76407 5.24203 7.67248 5.23499M10.8456 2.78812H9.32686V5.78812H9.96936V4.59812H10.7819V4.04062H9.96936V3.34562H10.8444V2.78812" fill="white"/>
</svg>
